<svg width="73" height="73" viewBox="0 0 73 73" fill="none" xmlns="http://www.w3.org/2000/svg">
<path d="M30.4167 6.08337V23.214C30.4167 24.5037 29.5893 25.6322 28.4305 26.201C25.3728 27.7083 22.7985 30.0419 20.9992 32.9374C19.1999 35.8328 18.2475 39.1744 18.25 42.5834C18.2683 54.75 27.375 63.875 33.4583 66.9167M30.4167 15.2084H24.3333C22.7199 15.2084 21.1726 15.8493 20.0318 16.9901C18.8909 18.131 18.25 19.6783 18.25 21.2917C18.25 22.9051 18.8909 24.4524 20.0318 25.5933C21.1726 26.7341 22.7199 27.375 24.3333 27.375H26.4017M42.5833 6.08337V23.214C42.5833 24.5037 43.4107 25.6322 44.5665 26.201C47.6247 27.7079 50.1997 30.0413 51.9995 32.9368C53.7994 35.8323 54.7522 39.1741 54.75 42.5834C54.75 54.75 45.625 63.875 39.5417 66.9167M42.5833 15.2084H48.6667C50.2801 15.2084 51.8274 15.8493 52.9682 16.9901C54.1091 18.131 54.75 19.6783 54.75 21.2917C54.75 22.9051 54.1091 24.4524 52.9682 25.5933C51.8274 26.7341 50.2801 27.375 48.6667 27.375H46.5983M54.75 66.9167H18.25M27.375 6.08337H45.625" stroke="black" stroke-width="4.375" stroke-linecap="round" stroke-linejoin="round"/>
</svg>
