<svg width="40" height="40" viewBox="0 0 40 40" fill="none" xmlns="http://www.w3.org/2000/svg">
<path d="M24.6824 34.3002V21.2335C24.6824 20.8003 24.5091 20.3849 24.2005 20.0785C23.8919 19.7722 23.4733 19.6001 23.0369 19.6001H16.455C16.0185 19.6001 15.6 19.7722 15.2914 20.0785C14.9828 20.3849 14.8095 20.8003 14.8095 21.2335V34.3002M4.93649 16.3335C4.93638 15.8583 5.04071 15.3888 5.24221 14.9577C5.4437 14.5267 5.73752 14.1445 6.10315 13.8377L17.6216 4.0393C18.2156 3.54098 18.9682 3.26758 19.7459 3.26758C20.5237 3.26758 21.2763 3.54098 21.8703 4.0393L33.3887 13.8377C33.7544 14.1445 34.0482 14.5267 34.2497 14.9577C34.4512 15.3888 34.5555 15.8583 34.5554 16.3335V31.0335C34.5554 31.8999 34.2087 32.7308 33.5915 33.3434C32.9743 33.9561 32.1372 34.3002 31.2644 34.3002H8.22748C7.35466 34.3002 6.51758 33.9561 5.9004 33.3434C5.28322 32.7308 4.93649 31.8999 4.93649 31.0335V16.3335Z" stroke="#404040" stroke-width="2.91667" stroke-linecap="round" stroke-linejoin="round"/>
</svg>
