<svg width="66" height="66" viewBox="0 0 66 66" fill="none" xmlns="http://www.w3.org/2000/svg">
<path d="M34.8219 20.7786C34.8219 21.4662 34.5532 22.1257 34.0749 22.612C33.5966 23.0982 32.9479 23.3714 32.2714 23.3714V28.5571C34.3007 28.5571 36.2469 27.7376 37.6819 26.2788C39.1168 24.8201 39.9229 22.8416 39.9229 20.7786H34.8219ZM32.2714 23.3714C31.595 23.3714 30.9463 23.0982 30.4679 22.612C29.9896 22.1257 29.7209 21.4662 29.7209 20.7786H24.6199C24.6199 22.8416 25.426 24.8201 26.861 26.2788C28.2959 27.7376 30.2421 28.5571 32.2714 28.5571V23.3714ZM29.7209 20.7786C29.7209 20.0909 29.9896 19.4314 30.4679 18.9451C30.9463 18.4589 31.595 18.1857 32.2714 18.1857V13C30.2421 13 28.2959 13.8195 26.861 15.2783C25.426 16.7371 24.6199 18.7156 24.6199 20.7786H29.7209ZM32.2714 18.1857C32.9479 18.1857 33.5966 18.4589 34.0749 18.9451C34.5532 19.4314 34.8219 20.0909 34.8219 20.7786H39.9229C39.9229 18.7156 39.1168 16.7371 37.6819 15.2783C36.2469 13.8195 34.3007 13 32.2714 13V18.1857ZM14.8413 43.7409L12.3953 43.0019L12 44.358L12.9054 45.4289L14.8413 43.7409ZM49.7016 43.7409L51.64 45.4289L52.5429 44.358L52.1475 43.0019L49.7016 43.7409ZM24.6199 38.9286H39.9229V33.7429H24.6199V38.9286ZM24.6199 33.7429C21.8732 33.742 19.1995 34.6427 16.9969 36.311C14.7943 37.9793 13.1804 40.326 12.3953 43.0019L17.2847 44.4799C17.7564 42.875 18.7252 41.4679 20.0468 40.4677C21.3684 39.4675 22.9723 38.9277 24.6199 38.9286V33.7429ZM32.2714 49.3C29.3268 49.3034 26.4166 48.6572 23.7415 47.406C21.0665 46.1548 18.6903 44.3285 16.7771 42.053L12.9054 45.4289C15.2975 48.2719 18.2676 50.5539 21.6109 52.1175C24.9542 53.6811 28.5913 54.489 32.2714 54.4857V49.3ZM39.9229 38.9286C43.384 38.9286 46.3145 41.2673 47.2582 44.4825L52.1475 43.0019C51.3626 40.3265 49.7466 37.9801 47.5444 36.3118C45.3423 34.6435 42.6693 33.7425 39.9229 33.7429V38.9286ZM47.7658 42.053C45.8525 44.3285 43.4764 46.1548 40.8013 47.406C38.1263 48.6572 35.216 49.3034 32.2714 49.3V54.4857C35.9516 54.489 39.5886 53.6811 42.932 52.1175C46.2753 50.5539 49.2479 48.2719 51.64 45.4289L47.7658 42.053Z" fill="black"/>
</svg>
