<svg width="87" height="87" viewBox="0 0 87 87" fill="none" xmlns="http://www.w3.org/2000/svg">
<g filter="url(#filter0_d_23_32)">
<circle cx="43.5" cy="43.5" r="38.5" fill="white"/>
</g>
<path d="M22.1 25.0146H26.1L31.42 49.3371C31.6151 50.2279 32.1213 51.0242 32.8514 51.589C33.5815 52.1537 34.4898 52.4516 35.42 52.4313H54.98C55.8903 52.4299 56.7729 52.1244 57.482 51.5654C58.1911 51.0064 58.6843 50.2273 58.88 49.3567L62.18 34.8063H28.24M36 62.1251C36 63.2066 35.1045 64.0834 34 64.0834C32.8954 64.0834 32 63.2066 32 62.1251C32 61.0435 32.8954 60.1667 34 60.1667C35.1045 60.1667 36 61.0435 36 62.1251ZM58 62.1251C58 63.2066 57.1045 64.0834 56 64.0834C54.8954 64.0834 54 63.2066 54 62.1251C54 61.0435 54.8954 60.1667 56 60.1667C57.1045 60.1667 58 61.0435 58 62.1251Z" stroke="black" stroke-width="2.91667" stroke-linecap="round" stroke-linejoin="round"/>
<defs>
<filter id="filter0_d_23_32" x="0" y="0" width="87" height="87" filterUnits="userSpaceOnUse" color-interpolation-filters="sRGB">
<feFlood flood-opacity="0" result="BackgroundImageFix"/>
<feColorMatrix in="SourceAlpha" type="matrix" values="0 0 0 0 0 0 0 0 0 0 0 0 0 0 0 0 0 0 127 0" result="hardAlpha"/>
<feOffset/>
<feGaussianBlur stdDeviation="2.5"/>
<feComposite in2="hardAlpha" operator="out"/>
<feColorMatrix type="matrix" values="0 0 0 0 0 0 0 0 0 0 0 0 0 0 0 0 0 0 0.4 0"/>
<feBlend mode="normal" in2="BackgroundImageFix" result="effect1_dropShadow_23_32"/>
<feBlend mode="normal" in="SourceGraphic" in2="effect1_dropShadow_23_32" result="shape"/>
</filter>
</defs>
</svg>
